{"title":"IT 2017 Movies HD TS XviD Clean Audio V2 New Source +Sample ☻rDX","magnet":"magnet:?xt=urn:btih:6987f17f4f28b9db04133d4a6a499eee8604281b&dn=IT+2017+Movies+HD+TS+XviD+Clean+Audio+V2+New+Source+%2BSample+%E2%98%BBrDX&tr=udp%3A%2F%2Ftracker.leechers-paradise.org%3A6969&tr=udp%3A%2F%2Fzer0day.ch%3A1337&tr=udp%3A%2F%2Fopen.demonii.com%3A1337&tr=udp%3A%2F%2Ftracker.coppersurfer.tk%3A6969&tr=udp%3A%2F%2Fexodus.desync.com%3A6969","uploader":"basicssom","categoryP":"video","categoryS":"movies","size":"736263831","seeders":"4","leechers":"618","description":"----------------------------------------------------------------\r\nIT 2017 Movies HD TS XviD Clean Audio AAC V2 New Source with Sample &#x263B;rDX&#x263B;\r\n\r\nSCREEN SHOTS &amp; POSTER:\r\n   <a href=\"\nhttp://postimage.co.nr/2017/9/levis/index.html\" rel=\"nofollow\" target=\"_NEW\">\nhttp://postimage.co.nr/2017/9/levis/index.html</a>  <a href=\"\nhttp://postimage.co.nr/2017/9/levis/1.html\" rel=\"nofollow\" target=\"_NEW\">\nhttp://postimage.co.nr/2017/9/levis/1.html</a>   <a href=\"\nhttp://postimage.co.nr/2017/9/levis/2.html\" rel=\"nofollow\" target=\"_NEW\">\nhttp://postimage.co.nr/2017/9/levis/2.html</a>   <a href=\"\nhttp://postimage.co.nr/2017/9/levis/3.html\" rel=\"nofollow\" target=\"_NEW\">\nhttp://postimage.co.nr/2017/9/levis/3.html</a>   <a href=\"\nhttp://postimage.co.nr/2017/9/levis/4.html\" rel=\"nofollow\" target=\"_NEW\">\nhttp://postimage.co.nr/2017/9/levis/4.html</a>   <a href=\"\nhttp://postimage.co.nr/2017/9/levis/5.html\" rel=\"nofollow\" target=\"_NEW\">\nhttp://postimage.co.nr/2017/9/levis/5.html</a>   <a href=\"\nhttp://postimage.co.nr/2017/9/levis/6.html\" rel=\"nofollow\" target=\"_NEW\">\nhttp://postimage.co.nr/2017/9/levis/6.html</a>   <a href=\"\nhttp://postimage.co.nr/2017/9/levis/7.html\" rel=\"nofollow\" target=\"_NEW\">\nhttp://postimage.co.nr/2017/9/levis/7.html</a>   <a href=\"\nhttp://postimage.co.nr/2017/9/levis/8.html\" rel=\"nofollow\" target=\"_NEW\">\nhttp://postimage.co.nr/2017/9/levis/8.html</a>   <a href=\"\nhttp://postimage.co.nr/2017/9/levis/9.html\" rel=\"nofollow\" target=\"_NEW\">\nhttp://postimage.co.nr/2017/9/levis/9.html</a>   <a href=\"\nhttp://postimage.co.nr/2017/9/levis/10.html\" rel=\"nofollow\" target=\"_NEW\">\nhttp://postimage.co.nr/2017/9/levis/10.html</a>\r\n\r\nFile size                                : 692 MiB\r\nDuration                                 : 2 h 8 min\r\nOverall bit rate mode                    : Constant\r\nOverall bit rate                         : 755 kb/s\r\nMovie name                               : IT 2017 Movies HD TS XviD Clean Audio AAC V2 New Source &#x263B;rDX&#x263B;\r\n\r\nVideo\r\nID                                       : 2\r\nFormat                                   : AVC\r\nFormat/Info                              : Advanced Video Codec\r\nFormat profile                           : <a href=\"/cdn-cgi/l/email-protection\" class=\"__cf_email__\" data-cfemail=\"195478707759552a3728\">[email&#xA0;protected]</a>\r\nFormat settings, CABAC                   : Yes\r\nFormat settings, ReFrames                : 2 frames\r\nFormat settings, GOP                     : M=1, N=12\r\nCodec ID                                 : V_MPEG4/ISO/AVC\r\nDuration                                 : 2 h 8 min\r\nBit rate mode                            : Constant\r\nBit rate                                 : 566 kb/s\r\nWidth                                    : 720 pixels\r\nHeight                                   : 320 pixels\r\nDisplay aspect ratio                     : 2.25:1\r\nFrame rate mode                          : Constant\r\nFrame rate                               : 60.000 FPS\r\nColor space                              : YUV\r\nChroma subsampling                       : 4:2:0\r\nBit depth                                : 8 bits\r\nScan type                                : Progressive\r\nBits/(Pixel*Frame)                       : 0.041\r\nStream size                              : 503 MiB (73%)\r\nTitle                                    : &#x263B;rDX&#x263B;\r\nDefault                                  : Yes\r\nForced                                   : No\r\n\r\nAudio\r\nID                                       : 1\r\nFormat                                   : MPEG Audio\r\nFormat version                           : Version 1\r\nFormat profile                           : Layer 3\r\nCodec ID                                 : A_MPEG/L3\r\nCodec ID/Hint                            : MP3\r\nDuration                                 : 2 h 8 min\r\nBit rate mode                            : Constant\r\nBit rate                                 : 192 kb/s\r\nChannel(s)                               : 2 channels\r\nSampling rate                            : 44.1 kHz\r\nCompression mode                         : Lossy\r\nDelay relative to video                  : 12 ms\r\nStream size                              : 176 MiB (25%)\r\nTitle                                    : &#x263B;rDX&#x263B;\r\nDefault                                  : Yes\r\nForced                                   : No","last_updated":"2017-09-16T12:09:43.091Z","parsed":{"xt":"urn:btih:6987f17f4f28b9db04133d4a6a499eee8604281b","dn":"IT 2017 Movies HD TS XviD Clean Audio V2 New Source  Sample ☻rDX","tr":["udp://exodus.desync.com:6969","udp://open.demonii.com:1337","udp://tracker.coppersurfer.tk:6969","udp://tracker.leechers-paradise.org:6969","udp://zer0day.ch:1337"],"infoHash":"6987f17f4f28b9db04133d4a6a499eee8604281b","infoHashBuffer":{"type":"Buffer","data":[105,135,241,127,79,40,185,219,4,19,61,74,106,73,158,238,134,4,40,27]},"name":"IT 2017 Movies HD TS XviD Clean Audio V2 New Source  Sample ☻rDX","announce":["udp://exodus.desync.com:6969","udp://open.demonii.com:1337","udp://tracker.coppersurfer.tk:6969","udp://tracker.leechers-paradise.org:6969","udp://zer0day.ch:1337"],"urlList":[]}}